<?xml version="1.0" encoding="utf-8"?>
<!-- Generator: Adobe Illustrator 25.4.1, SVG Export Plug-In . SVG Version: 6.00 Build 0)  -->
<svg version="1.0" id="Layer_1" xmlns="http://www.w3.org/2000/svg" xmlns:xlink="http://www.w3.org/1999/xlink" x="0px" y="0px"
	 viewBox="0 0 1276 923.8" style="enable-background:new 0 0 1276 923.8;" xml:space="preserve">
<style type="text/css">
	.st0{fill:#E51411;}
	.st1{fill:#FFFFFF;}
	.st2{fill:none;}
</style>
<path class="st0" d="M261,84.9h754v754H261V84.9z"/>
<path class="st1" d="M602.5,727.4h17.8v-79.8h-17.8V727.4z M509.9,597.7l21.1,28.2h8.2v-42.3h-8.5v27.9L510,583.8h-8.5v42.3h8.5
	L509.9,597.7z M605.2,583.6h-35.9v9h13.6v33.3h9v-33.3h13.3V583.6z M550.2,705.4l-17-58H519l-16.8,57.7l-15.5-57.7h-17.3l22.6,79.8
	h19.1l14.9-52.7l14.9,52.7h19.1l22.6-79.8h-17.3L550.2,705.4z M670.2,532h52.1c47.9,0,86.7-38.8,86.7-86.7V280.4
	c0-47.9-38.8-86.7-86.7-86.7h-52.4c-1.2,0-2.1,0.9-2.1,2.1c0,0,0,0,0,0.1v333.8C667.7,530.9,668.8,532,670.2,532
	C670.1,532,670.1,532,670.2,532L670.2,532z M734.5,345.5c18.9,0.1,34.3,15.5,34.2,34.4c-0.1,18.9-15.5,34.3-34.4,34.2
	c-18.9-0.1-34.2-15.4-34.2-34.3C700.4,361,715.5,345.5,734.5,345.5L734.5,345.5z M469.6,583.5h-9.4v42.4h9.3L469.6,583.5z
	 M398.9,597.6l21,28.2h8.1v-42.3h-8.5v27.9l-20.7-27.7h-8.5v42.3h8.5L398.9,597.6z M423.9,679h-0.5c-9.8-1.6-18.1-3.2-18.9-8.8
	c-0.1-1.6,0.4-3.2,1.3-4.5c2.7-3.2,8.8-4.5,17.8-4.5c10.4,0,20.8,4,24.5,5.6l5.6-13.8c-4-1.6-16.8-6.1-30.9-6.1
	c-17.3,0-35.6,8.5-35.6,23.9c0,12.5,8.8,19.2,31.6,23.1c16.2,2.7,25,4.3,24.7,11.2c-0.3,3.7-3.2,10.1-21.3,10.1
	c-10,0.1-19.8-2.5-28.5-7.5l-7.4,13.6c10.8,5.5,22.6,8.5,34.7,8.6c25.3,0,38.8-8.8,38.8-25.5c0.3-12-5.6-20-36.2-25.3L423.9,679z
	 M523.3,295.2c0,17.6,14.3,31.9,31.9,31.9s31.9-14.3,31.9-31.9c0-17.6-14.3-31.9-31.9-31.9c0,0,0,0,0,0c-17.5-0.2-31.8,13.8-32,31.3
	c0,0.2,0,0.4,0,0.6L523.3,295.2z M669,618.1h-24.2v-9.8h22.3v-7.7h-22.4v-9H669v-7.7h-33v42.3h33V618.1z M866.9,582.2
	c-12.5,0-22.6,10.1-22.6,22.6c0,12.5,10.1,22.6,22.6,22.6c12.5,0,22.6-10.1,22.6-22.6C889.2,592.3,879.1,582.2,866.9,582.2
	L866.9,582.2z M866.9,617.9c-7.2,0-13-5.8-13-13s5.8-13,13-13s13,5.8,13,13C879.9,612.1,874,617.9,866.9,617.9L866.9,617.9z
	 M869.5,679h-37.3v-31.4h-16.5v79.8h16.5v-31.9h37.2v31.9H886v-79.8h-16.5L869.5,679z M892.7,719.2h3.5v8.2h1.9v-8.2h3.2v-1.9h-8.5
	V719.2z M911,717.1l-2.7,7.5l-2.7-7.5h-2.9v10.1h1.9v-7.7l2.7,7.7h1.9l2.7-7.7v7.7h1.9v-10.1H911z M762.9,662.8
	c9,0,17.3,4.8,21.8,12.5l13-11.2c-13.1-19.5-39.5-24.8-59-11.7c-19.5,13.1-24.8,39.5-11.7,59c7.9,11.8,21.2,18.9,35.4,18.9
	c14.2,0.1,27.5-7,35.4-18.9l-13-11.2c-4.6,7.7-12.9,12.4-21.8,12.5c-13.8,0-25.3-11.2-25.3-24.7C737.7,674.2,749,662.9,762.9,662.8z
	 M639.7,664.4h25.5v62.8h17.3v-62.8h25v-17H640v17L639.7,664.4z M741.9,625.9v-42.3h-8.5v27.9l-20.8-27.7h-8.5v42.3h8.5v-28.2
	l21,28.2h8.2L741.9,625.9z M631.2,193.7h-73.9c-47.9,0-86.7,38.8-86.7,86.7v164.9c0,47.9,38.8,86.7,86.7,86.7h73.9
	c1.3,0,2.4-1.1,2.4-2.4c0,0,0,0,0,0V196.1C633.6,194.7,632.6,193.7,631.2,193.7C631.2,193.7,631.2,193.7,631.2,193.7z M606.5,504.9
	h-49.2c-15.8,0.1-31-6.2-42-17.5c-11.2-11.1-17.5-26.2-17.6-42v-165c-0.1-15.8,6.2-31,17.6-42c11.1-11.2,26.2-17.5,42-17.6h49.2
	V504.9z M795.1,583.6h-17.6v42.3H795c12,0,21.8-9.6,21.8-21C816.9,593.1,807,583.6,795.1,583.6L795.1,583.6z M795.6,617.1h-9.3
	v-24.5h9.3c6.8-0.2,12.4,5.1,12.6,11.9s-5.1,12.4-11.9,12.6C796,617.1,795.8,617.1,795.6,617.1L795.6,617.1z"/>
<rect x="238" y="61.9" class="st2" width="800" height="800"/>
</svg>
